<svg id="schedule" xmlns="http://www.w3.org/2000/svg" width="282.162" height="282.158" viewBox="0 0 282.162 282.158">
  <ellipse id="Ellipse_4" data-name="Ellipse 4" cx="5.297" cy="15.896" rx="5.297" ry="15.896" transform="translate(211.942 100.515)" fill="#505050"/>
  <path id="Path_1532" data-name="Path 1532" d="M238.073,22.043H223.741V11.024a11.023,11.023,0,1,0-22.046,0l0,11.019H151.548V11.024a11.023,11.023,0,1,0-22.046,0l0,11.019H79.89V11.024a11.023,11.023,0,1,0-22.046,0l0,11.019H44.087A44.139,44.139,0,0,0,0,66.153V238.071a44.139,44.139,0,0,0,44.087,44.086H128.4a11.023,11.023,0,1,0,0-22.046l-84.317,0a22.067,22.067,0,0,1-22.043-22.043V66.153A22.067,22.067,0,0,1,44.087,44.086H57.865V55.11a11.023,11.023,0,1,0,22.046,0l0-11.024h49.615V55.11a11.023,11.023,0,1,0,22.046,0l0-11.024H201.7V55.11a11.023,11.023,0,1,0,22.046,0l0-11.024h14.327a22.067,22.067,0,0,1,22.048,22.067V129a11.023,11.023,0,1,0,22.046,0l0-62.846a44.138,44.138,0,0,0-44.087-44.11Z" transform="translate(0 0)" fill="#505050"/>
  <path id="Path_1533" data-name="Path 1533" d="M336.683,270a66.682,66.682,0,1,0,66.683,66.682A66.683,66.683,0,0,0,336.683,270Zm0,111.322a44.639,44.639,0,1,1,44.639-44.639A44.639,44.639,0,0,1,336.683,381.322Z" transform="translate(-121.206 -121.207)" fill="#505050"/>
  <path id="Path_1534" data-name="Path 1534" d="M398.007,352.6h-4.961V341.024a11.023,11.023,0,1,0-22.046,0l0,22.6a11.019,11.019,0,0,0,11.019,11.024H398a11.023,11.023,0,1,0,0-22.046Z" transform="translate(-166.55 -148.14)" fill="#505050"/>
  <ellipse id="Ellipse_5" data-name="Ellipse 5" cx="10.599" cy="15.896" rx="10.599" ry="15.896" transform="translate(148.359 100.515)" fill="#505050"/>
  <ellipse id="Ellipse_6" data-name="Ellipse 6" cx="10.599" cy="10.599" rx="10.599" ry="10.599" transform="translate(105.969 153.499)" fill="#505050"/>
  <ellipse id="Ellipse_7" data-name="Ellipse 7" cx="10.599" cy="15.896" rx="10.599" ry="15.896" transform="translate(63.583 100.515)" fill="#505050"/>
  <ellipse id="Ellipse_8" data-name="Ellipse 8" cx="10.599" cy="10.599" rx="10.599" ry="10.599" transform="translate(63.583 153.499)" fill="#505050"/>
  <ellipse id="Ellipse_9" data-name="Ellipse 9" cx="10.599" cy="10.599" rx="10.599" ry="10.599" transform="translate(63.583 206.488)" fill="#505050"/>
  <ellipse id="Ellipse_10" data-name="Ellipse 10" cx="10.599" cy="10.599" rx="10.599" ry="10.599" transform="translate(105.969 206.488)" fill="#505050"/>
  <ellipse id="Ellipse_11" data-name="Ellipse 11" cx="10.599" cy="15.896" rx="10.599" ry="15.896" transform="translate(105.969 100.515)" fill="#505050"/>
</svg>
